<svg xmlns="http://www.w3.org/2000/svg" viewBox="0 0 65 66.01"><defs><style>.cls-1{fill:#5580ff;}.cls-2{fill:#00d465;}.cls-3{fill:#f28c46;}.cls-4{fill:#7397ef;}.cls-5{fill:#79e570;}.cls-6{fill:#edbc74;}.cls-7{fill:none;stroke:#000;stroke-miterlimit:10;}</style></defs><title>isotipoRecurso 2v2</title><g id="Capa_2" data-name="Capa 2"><g id="Capa_1-2" data-name="Capa 1"><path class="cls-1" d="M.76,1.66v64h16v-23a18.94,18.94,0,0,1,0-18.88V23l-8-10.66Z"/><path class="cls-2" d="M49.11,22.75a19,19,0,0,1-5,26l4.78,6.39L64.65,33.89l.11,31.77v-64Z"/><path class="cls-3" d="M38.15,51.51l6.75,9,3.86,5.15h8L48.87,55.15l-4.78-6.39A19.07,19.07,0,0,1,38.15,51.51Z"/><path class="cls-3" d="M21.31,18.39,8.76,1.66V12.33l8,10.66.25.33A19.33,19.33,0,0,1,21.31,18.39Z"/><path class="cls-4" d="M16.76,42.61V23.73a18.94,18.94,0,0,0,0,18.88Z"/><path class="cls-5" d="M52.24,33.17a18.88,18.88,0,0,0-3.13-10.42L36.91,39.19l7.18,9.57A19,19,0,0,0,52.24,33.17Z"/><path class="cls-6" d="M36.91,39.19l-15.6-20.8A19.33,19.33,0,0,0,17,23.32L32.93,44.55l5.22,7a19.07,19.07,0,0,0,5.94-2.75Z"/><polygon class="cls-7" points="48.85 22.6 36.65 39.04 21.05 18.25 8.5 1.51 8.5 12.18 0.5 1.51 0.5 65.51 16.5 65.51 16.5 42.47 16.5 23.59 16.5 22.84 16.75 23.18 32.67 44.4 37.89 51.36 44.64 60.36 48.5 65.51 56.5 65.51 48.61 55 64.39 33.74 64.5 65.51 64.5 1.51 48.85 22.6"/></g></g></svg>